<svg width="80" height="80" viewBox="0 0 80 80"  xmlns="http://www.w3.org/2000/svg">
<g clip-path="url(#clip0_352_293)">
<path d="M38.2665 55.829C38.2261 55.829 38.1849 55.8282 38.1436 55.8273C36.9362 55.793 35.7973 55.2635 34.9929 54.3643L20.8077 38.4905C19.1919 36.6824 19.3473 33.9067 21.1554 32.2909C22.9635 30.6743 25.7392 30.8297 27.355 32.6386L38.4457 45.0492L71.976 11.5189C73.6892 9.80476 76.4711 9.80476 78.1843 11.5189C79.8993 13.2338 79.8993 16.014 78.1843 17.7281L41.3707 54.5426C40.547 55.368 39.4292 55.829 38.2665 55.829Z" />
<path d="M39.9552 79.4708C18.1663 79.4708 0.439575 61.7441 0.439575 39.9552C0.439575 18.1663 18.1663 0.43956 39.9552 0.43956C42.3806 0.43956 44.3458 2.40568 44.3458 4.83018C44.3458 7.25469 42.3806 9.22081 39.9552 9.22081C23.0083 9.22081 9.22083 23.0083 9.22083 39.9552C9.22083 56.9021 23.0083 70.6896 39.9552 70.6896C56.9021 70.6896 70.6896 56.9021 70.6896 39.9552C70.6896 37.5307 72.6548 35.5646 75.0802 35.5646C77.5056 35.5646 79.4708 37.5307 79.4708 39.9552C79.4708 61.7441 61.7441 79.4708 39.9552 79.4708Z" />
</g>
<defs>
<clipPath id="clip0_352_293">
<rect width="80" height="80" fill="white"/>
</clipPath>
</defs>
</svg>
