<svg width="19" height="20" viewBox="0 0 19 20" fill="none" xmlns="http://www.w3.org/2000/svg">
<path fill-rule="evenodd" clip-rule="evenodd" d="M9.51428 0.87146C6.93733 0.87146 6.61639 0.882527 5.603 0.929955C2.15653 1.08805 0.243574 2.99942 0.0854787 6.4459C0.0396311 7.45929 0.0285645 7.7818 0.0285645 10.3572C0.0285645 12.9341 0.0396311 13.2566 0.0854787 14.2685C0.243574 17.7133 2.15653 19.6279 5.603 19.786C6.61639 19.8318 6.93733 19.8429 9.51428 19.8429C12.0912 19.8429 12.4137 19.8318 13.4271 19.786C16.8673 19.6279 18.7881 17.7165 18.9431 14.2685C18.9889 13.2566 19 12.9341 19 10.3572C19 7.7818 18.9889 7.45929 18.9431 6.4459C18.7881 3.00417 16.8736 1.08647 13.4271 0.929955C12.4137 0.882527 12.0912 0.87146 9.51428 0.87146ZM9.51449 2.58204C12.0472 2.58204 12.3476 2.59152 13.3483 2.63737C15.9205 2.75436 17.1189 3.97328 17.2374 6.52493C17.2817 7.52568 17.2912 7.82448 17.2912 10.3572C17.2912 12.8898 17.2817 13.1902 17.2374 14.1894C17.1189 16.7395 15.9221 17.9615 13.3483 18.0785C12.3476 18.1228 12.0488 18.1339 9.51449 18.1339C6.9818 18.1339 6.68142 18.1244 5.68226 18.0785C3.10531 17.96 1.91169 16.7363 1.79312 14.1894C1.74885 13.1902 1.73778 12.8898 1.73778 10.3572C1.73778 7.82448 1.74885 7.5241 1.79312 6.52493C1.91011 3.97169 3.10847 2.75278 5.68226 2.63579C6.68142 2.58994 6.9818 2.58204 9.51449 2.58204ZM4.64353 10.3572C4.64353 7.6664 6.82524 5.48627 9.51444 5.48627C12.2036 5.48627 14.3854 7.66798 14.3854 10.3572C14.3854 13.048 12.2036 15.2281 9.51444 15.2281C6.82524 15.2281 4.64353 13.048 4.64353 10.3572ZM9.51409 13.5192C7.76714 13.5192 6.35219 12.1043 6.35219 10.3573C6.35219 8.61193 7.76714 7.19539 9.51409 7.19539C11.2595 7.19539 12.6776 8.61035 12.6776 10.3573C12.6776 12.1043 11.2595 13.5192 9.51409 13.5192ZM13.4382 5.29504C13.4382 4.66582 13.9488 4.15676 14.5765 4.15676C15.2073 4.15676 15.7163 4.66582 15.7163 5.29504C15.7163 5.92426 15.2057 6.43333 14.5765 6.43333C13.9473 6.43333 13.4382 5.92268 13.4382 5.29504Z" fill="#EDEFEE"/>
</svg>
