<svg width="25" height="24" viewBox="0 0 25 24" fill="none" xmlns="http://www.w3.org/2000/svg">
<path fill-rule="evenodd" clip-rule="evenodd" d="M22.2516 0.224831C22.5221 0.115456 22.8264 0.0177999 23.1495 0.00217485C23.4726 -0.0134501 23.822 0.0529559 24.1751 0.271706C24.5245 0.48655 24.8138 0.888894 24.9265 1.31858C25.0392 1.74827 25.0129 2.18967 24.9114 2.66233L21.3199 21.7912L21.2861 21.8811C21.2861 21.8811 21.0832 22.4397 20.561 22.8772C20.0426 23.3108 19.062 23.5569 18.0928 23.1155L17.9876 23.0686L13.3403 19.3615L10.5678 21.9865L10.534 22.0139C10.534 22.0139 9.93664 22.4944 9.19279 22.26L9.18582 22.2589C9.14137 22.2518 9.11582 22.2477 9.08008 22.2365C9.07521 22.2349 9.07033 22.2317 9.06515 22.2284C9.05836 22.224 9.05104 22.2192 9.04251 22.217L9.05198 22.2193C9.04495 22.2167 9.03809 22.2135 9.03124 22.2092C8.97113 22.1858 8.91103 22.1584 8.85467 22.1233C8.71191 22.0295 8.59169 21.9123 8.49026 21.7717C8.27987 21.4983 8.11082 21.1389 7.938 20.5647C7.75328 19.9589 7.19983 18.0773 6.76322 16.5928C6.50721 15.7224 6.29137 14.9886 6.21361 14.7287L1.51755 13.0842H1.51003C1.51003 13.0842 1.19822 12.9709 0.87137 12.7287C0.548281 12.4905 0.0974594 12.0569 0.0110517 11.3342C-0.0415447 10.9084 0.101216 10.4944 0.277788 10.2248C0.454359 9.9553 0.65723 9.78342 0.841315 9.65842C1.12744 9.45389 1.4041 9.33787 1.50623 9.29865C1.84342 9.15084 6.67635 7.03231 11.5897 4.88108C12.7942 4.35353 14.003 3.82423 15.1519 3.32116C16.4359 2.75889 17.6452 2.22939 18.6901 1.77171C19.092 1.59646 19.466 1.43329 19.8093 1.28357C21.1568 0.695716 22.0293 0.315116 22.2478 0.224831H22.2516ZM23.051 2.09436C23.0509 2.08324 23.0507 2.07105 23.0518 2.05298C23.028 2.05298 23.0209 2.05298 23.0148 2.05533C23.0064 2.05855 22.9997 2.06618 22.9541 2.08423C22.8715 2.11938 21.41 2.7522 19.4339 3.61548C17.7781 4.34213 15.7055 5.24979 13.5764 6.1822C13.1646 6.36253 12.7507 6.5438 12.3373 6.72485C7.24297 8.95532 2.23133 11.1506 2.23133 11.1506L2.20128 11.1624L2.17122 11.178C2.17122 11.178 2.14493 11.1897 2.14117 11.1897C2.14305 11.1897 2.14586 11.1907 2.14868 11.1917C2.1515 11.1926 2.15432 11.1936 2.1562 11.1936V11.1975L7.76893 13.1624L7.77268 13.1819L19.4828 5.63892C19.4828 5.63892 20.0876 5.3186 20.0613 5.77173C20.0613 5.77173 20.1891 5.84985 19.8059 6.22095C19.4227 6.59204 10.5189 15.2209 10.5189 15.2209L9.79763 20.01L13.2314 16.7561L18.9155 21.2874C19.2273 21.4163 19.2874 21.3772 19.3626 21.3147C19.4265 21.2622 19.4542 21.2098 19.4701 21.1797C19.472 21.1762 19.4737 21.173 19.4753 21.1702L23.033 2.24048V2.22876C23.0517 2.14267 23.0514 2.12173 23.051 2.09436Z" fill="#9B9B9B"/>
</svg>
