<svg width="20" height="16" viewBox="0 0 20 16" fill="none" xmlns="http://www.w3.org/2000/svg">
<path d="M19.3428 2.06892C18.6456 2.37879 17.8946 2.58747 17.1073 2.68233C17.912 2.20014 18.527 1.43812 18.8195 0.529072C18.0669 0.974901 17.2338 1.299 16.3469 1.4729C15.6386 0.715625 14.6252 0.24292 13.5075 0.24292C10.9938 0.24292 9.14721 2.58747 9.71477 5.02214C6.48172 4.8593 3.61229 3.30997 1.69301 0.955929C0.6733 2.70446 1.16498 4.99368 2.8977 6.15252C2.26058 6.13197 1.6614 5.95648 1.13652 5.66559C1.09383 7.46787 2.38705 9.15475 4.2589 9.53102C3.71189 9.67962 3.11113 9.71441 2.50088 9.59741C2.99572 11.1436 4.43597 12.2676 6.13707 12.2993C4.49762 13.583 2.43764 14.1569 0.371338 13.9134C2.09458 15.0185 4.13875 15.6619 6.33627 15.6619C13.5644 15.6619 17.6464 9.55789 17.3998 4.08305C18.1618 3.53604 18.8211 2.84991 19.3428 2.06892V2.06892Z" fill="#EDEFEE"/>
</svg>
